<?xml version="1.0" encoding="UTF-8" standalone="no"?><svg xmlns="http://www.w3.org/2000/svg" xmlns:xlink="http://www.w3.org/1999/xlink" contentScriptType="application/ecmascript" contentStyleType="text/css" height="239px" preserveAspectRatio="none" style="width:483px;height:239px;" version="1.1" viewBox="0 0 483 239" width="483px" zoomAndPan="magnify"><defs><filter height="300%" id="fwumantsubvkl" width="300%" x="-1" y="-1"><feGaussianBlur result="blurOut" stdDeviation="2.0"/><feColorMatrix in="blurOut" result="blurOut2" type="matrix" values="0 0 0 0 0 0 0 0 0 0 0 0 0 0 0 0 0 0 .4 0"/><feOffset dx="4.0" dy="4.0" in="blurOut2" result="blurOut3"/><feBlend in="SourceGraphic" in2="blurOut3" mode="normal"/></filter></defs><g><!--MD5=[cf4d6237fcae255cd2e1656cf84a30e2]
class Order--><rect fill="#FEFECE" filter="url(#fwumantsubvkl)" height="80.1758" id="Order" style="stroke: #A80036; stroke-width: 1.5;" width="125" x="185" y="8"/><ellipse cx="200" cy="27.1328" fill="#ADD1B2" rx="11" ry="11" style="stroke: #A80036; stroke-width: 1.0;"/><path d="M202.4731,33.2759 Q201.8921,33.5747 201.2529,33.7241 Q200.6138,33.8735 199.9082,33.8735 Q197.4014,33.8735 196.0815,32.2217 Q194.7617,30.5698 194.7617,27.4487 Q194.7617,24.3193 196.0815,22.6675 Q197.4014,21.0156 199.9082,21.0156 Q200.6138,21.0156 201.2612,21.165 Q201.9087,21.3145 202.4731,21.6133 L202.4731,24.3359 Q201.8423,23.7549 201.2488,23.4851 Q200.6553,23.2153 200.0244,23.2153 Q198.6797,23.2153 197.9949,24.282 Q197.3101,25.3486 197.3101,27.4487 Q197.3101,29.5405 197.9949,30.6072 Q198.6797,31.6738 200.0244,31.6738 Q200.6553,31.6738 201.2488,31.4041 Q201.8423,31.1343 202.4731,30.5532 Z "/><text fill="#000000" font-family="sans-serif" font-size="12" font-style="italic" lengthAdjust="spacingAndGlyphs" textLength="97" x="212" y="24.6016">«AggregateRoot»</text><text fill="#000000" font-family="sans-serif" font-size="12" lengthAdjust="spacingAndGlyphs" textLength="34" x="243.5" y="38.7344">Order</text><line style="stroke: #A80036; stroke-width: 1.5;" x1="186" x2="309" y1="46.2656" y2="46.2656"/><text fill="#000000" font-family="sans-serif" font-size="11" lengthAdjust="spacingAndGlyphs" textLength="61" x="191" y="60.9004">id : OrderId</text><text fill="#000000" font-family="sans-serif" font-size="11" lengthAdjust="spacingAndGlyphs" textLength="11" x="191" y="73.8555">…</text><line style="stroke: #A80036; stroke-width: 1.5;" x1="186" x2="309" y1="80.1758" y2="80.1758"/><!--MD5=[24e7354b14fe45153051fb5e63b1cd34]
class LineItem--><rect fill="#FEFECE" filter="url(#fwumantsubvkl)" height="80.1758" id="LineItem" style="stroke: #A80036; stroke-width: 1.5;" width="155" x="166" y="148"/><ellipse cx="215.25" cy="167.1328" fill="#ADD1B2" rx="11" ry="11" style="stroke: #A80036; stroke-width: 1.0;"/><path d="M217.7231,173.2759 Q217.1421,173.5747 216.5029,173.7241 Q215.8638,173.8735 215.1582,173.8735 Q212.6514,173.8735 211.3315,172.2217 Q210.0117,170.5698 210.0117,167.4487 Q210.0117,164.3193 211.3315,162.6675 Q212.6514,161.0156 215.1582,161.0156 Q215.8638,161.0156 216.5112,161.165 Q217.1587,161.3145 217.7231,161.6133 L217.7231,164.3359 Q217.0923,163.7549 216.4988,163.4851 Q215.9053,163.2153 215.2744,163.2153 Q213.9297,163.2153 213.2449,164.282 Q212.5601,165.3486 212.5601,167.4487 Q212.5601,169.5405 213.2449,170.6072 Q213.9297,171.6738 215.2744,171.6738 Q215.9053,171.6738 216.4988,171.4041 Q217.0923,171.1343 217.7231,170.5532 Z "/><text fill="#000000" font-family="sans-serif" font-size="12" font-style="italic" lengthAdjust="spacingAndGlyphs" textLength="43" x="238.25" y="164.6016">«Entity»</text><text fill="#000000" font-family="sans-serif" font-size="12" lengthAdjust="spacingAndGlyphs" textLength="48" x="235.75" y="178.7344">LineItem</text><line style="stroke: #A80036; stroke-width: 1.5;" x1="167" x2="320" y1="186.2656" y2="186.2656"/><text fill="#000000" font-family="sans-serif" font-size="11" lengthAdjust="spacingAndGlyphs" textLength="143" x="172" y="200.9004">amount : MonetaryAmount</text><text fill="#000000" font-family="sans-serif" font-size="11" lengthAdjust="spacingAndGlyphs" textLength="11" x="172" y="213.8555">…</text><line style="stroke: #A80036; stroke-width: 1.5;" x1="167" x2="320" y1="220.1758" y2="220.1758"/><!--MD5=[72136138052d025cffdce3c22fbd185f]
class Product--><rect fill="#FEFECE" filter="url(#fwumantsubvkl)" height="80.1758" id="Product" style="stroke: #A80036; stroke-width: 1.5;" width="125" x="6" y="148"/><ellipse cx="21" cy="167.1328" fill="#ADD1B2" rx="11" ry="11" style="stroke: #A80036; stroke-width: 1.0;"/><path d="M23.4731,173.2759 Q22.8921,173.5747 22.2529,173.7241 Q21.6138,173.8735 20.9082,173.8735 Q18.4014,173.8735 17.0815,172.2217 Q15.7617,170.5698 15.7617,167.4487 Q15.7617,164.3193 17.0815,162.6675 Q18.4014,161.0156 20.9082,161.0156 Q21.6138,161.0156 22.2612,161.165 Q22.9087,161.3145 23.4731,161.6133 L23.4731,164.3359 Q22.8423,163.7549 22.2488,163.4851 Q21.6553,163.2153 21.0244,163.2153 Q19.6797,163.2153 18.9949,164.282 Q18.3101,165.3486 18.3101,167.4487 Q18.3101,169.5405 18.9949,170.6072 Q19.6797,171.6738 21.0244,171.6738 Q21.6553,171.6738 22.2488,171.4041 Q22.8423,171.1343 23.4731,170.5532 Z "/><text fill="#000000" font-family="sans-serif" font-size="12" font-style="italic" lengthAdjust="spacingAndGlyphs" textLength="97" x="33" y="164.6016">«AggregateRoot»</text><text fill="#000000" font-family="sans-serif" font-size="12" lengthAdjust="spacingAndGlyphs" textLength="44" x="59.5" y="178.7344">Product</text><line style="stroke: #A80036; stroke-width: 1.5;" x1="7" x2="130" y1="186.2656" y2="186.2656"/><text fill="#000000" font-family="sans-serif" font-size="11" lengthAdjust="spacingAndGlyphs" textLength="71" x="12" y="200.9004">id : ProductId</text><text fill="#000000" font-family="sans-serif" font-size="11" lengthAdjust="spacingAndGlyphs" textLength="11" x="12" y="213.8555">…</text><line style="stroke: #A80036; stroke-width: 1.5;" x1="7" x2="130" y1="220.1758" y2="220.1758"/><!--MD5=[2ce0c9fb7f55b1e256ab28a8ea6b25ec]
class Customer--><rect fill="#FEFECE" filter="url(#fwumantsubvkl)" height="80.1758" id="Customer" style="stroke: #A80036; stroke-width: 1.5;" width="125" x="347" y="8"/><ellipse cx="362" cy="27.1328" fill="#ADD1B2" rx="11" ry="11" style="stroke: #A80036; stroke-width: 1.0;"/><path d="M364.4731,33.2759 Q363.8921,33.5747 363.2529,33.7241 Q362.6138,33.8735 361.9082,33.8735 Q359.4014,33.8735 358.0815,32.2217 Q356.7617,30.5698 356.7617,27.4487 Q356.7617,24.3193 358.0815,22.6675 Q359.4014,21.0156 361.9082,21.0156 Q362.6138,21.0156 363.2612,21.165 Q363.9087,21.3145 364.4731,21.6133 L364.4731,24.3359 Q363.8423,23.7549 363.2488,23.4851 Q362.6553,23.2153 362.0244,23.2153 Q360.6797,23.2153 359.9949,24.282 Q359.3101,25.3486 359.3101,27.4487 Q359.3101,29.5405 359.9949,30.6072 Q360.6797,31.6738 362.0244,31.6738 Q362.6553,31.6738 363.2488,31.4041 Q363.8423,31.1343 364.4731,30.5532 Z "/><text fill="#000000" font-family="sans-serif" font-size="12" font-style="italic" lengthAdjust="spacingAndGlyphs" textLength="97" x="374" y="24.6016">«AggregateRoot»</text><text fill="#000000" font-family="sans-serif" font-size="12" lengthAdjust="spacingAndGlyphs" textLength="55" x="395" y="38.7344">Customer</text><line style="stroke: #A80036; stroke-width: 1.5;" x1="348" x2="471" y1="46.2656" y2="46.2656"/><text fill="#000000" font-family="sans-serif" font-size="11" lengthAdjust="spacingAndGlyphs" textLength="82" x="353" y="60.9004">id : CustomerId</text><text fill="#000000" font-family="sans-serif" font-size="11" lengthAdjust="spacingAndGlyphs" textLength="11" x="353" y="73.8555">…</text><line style="stroke: #A80036; stroke-width: 1.5;" x1="348" x2="471" y1="80.1758" y2="80.1758"/><!--MD5=[0f39e4cb6f03951afbf6d14bd2505654]
class Address--><rect fill="#FEFECE" filter="url(#fwumantsubvkl)" height="80.1758" id="Address" style="stroke: #A80036; stroke-width: 1.5;" width="110" x="356.5" y="148"/><ellipse cx="371.5" cy="167.1328" fill="#ADD1B2" rx="11" ry="11" style="stroke: #A80036; stroke-width: 1.0;"/><path d="M373.9731,173.2759 Q373.3921,173.5747 372.7529,173.7241 Q372.1138,173.8735 371.4082,173.8735 Q368.9014,173.8735 367.5815,172.2217 Q366.2617,170.5698 366.2617,167.4487 Q366.2617,164.3193 367.5815,162.6675 Q368.9014,161.0156 371.4082,161.0156 Q372.1138,161.0156 372.7612,161.165 Q373.4087,161.3145 373.9731,161.6133 L373.9731,164.3359 Q373.3423,163.7549 372.7488,163.4851 Q372.1553,163.2153 371.5244,163.2153 Q370.1797,163.2153 369.4949,164.282 Q368.8101,165.3486 368.8101,167.4487 Q368.8101,169.5405 369.4949,170.6072 Q370.1797,171.6738 371.5244,171.6738 Q372.1553,171.6738 372.7488,171.4041 Q373.3423,171.1343 373.9731,170.5532 Z "/><text fill="#000000" font-family="sans-serif" font-size="12" font-style="italic" lengthAdjust="spacingAndGlyphs" textLength="82" x="383.5" y="164.6016">«ValueObject»</text><text fill="#000000" font-family="sans-serif" font-size="12" lengthAdjust="spacingAndGlyphs" textLength="48" x="400.5" y="178.7344">Address</text><line style="stroke: #A80036; stroke-width: 1.5;" x1="357.5" x2="465.5" y1="186.2656" y2="186.2656"/><text fill="#000000" font-family="sans-serif" font-size="11" lengthAdjust="spacingAndGlyphs" textLength="98" x="362.5" y="200.9004">zipCode : ZipCode</text><text fill="#000000" font-family="sans-serif" font-size="11" lengthAdjust="spacingAndGlyphs" textLength="11" x="362.5" y="213.8555">…</text><line style="stroke: #A80036; stroke-width: 1.5;" x1="357.5" x2="465.5" y1="220.1758" y2="220.1758"/><!--MD5=[40f60b6dbe37d0c25a38cf6d49065a69]
reverse link Order to LineItem--><path d="M245.98,101.32 C245.54,116.72 245.06,133.29 244.64,147.73 " fill="none" id="Order&lt;-LineItem" style="stroke: #A80036; stroke-width: 1.0;"/><polygon fill="#A80036" points="246.36,88.18,242.1903,94.0633,246.0173,100.1751,250.187,94.2918,246.36,88.18" style="stroke: #A80036; stroke-width: 1.0;"/><text fill="#000000" font-family="sans-serif" font-size="13" lengthAdjust="spacingAndGlyphs" textLength="8" x="237.5087" y="108.6565">1</text><text fill="#000000" font-family="sans-serif" font-size="13" lengthAdjust="spacingAndGlyphs" textLength="6" x="238.3319" y="137.3976">*</text><!--MD5=[974e04b6a15cb32fd3a75b6493ab3c39]
reverse link Product to LineItem--><path d="M136.2,188 C146.05,188 155.9,188 165.75,188 " fill="none" id="Product&lt;-LineItem" style="stroke: #A80036; stroke-width: 1.0;"/><polygon fill="#A80036" points="131.05,188,140.05,192,136.05,188,140.05,184,131.05,188" style="stroke: #A80036; stroke-width: 1.0;"/><!--MD5=[d2a3d6f55785c562bcc187930a126fcf]
reverse link Customer to Address--><path d="M410.26,101.32 C410.48,116.72 410.72,133.29 410.93,147.73 " fill="none" id="Customer&lt;-Address" style="stroke: #A80036; stroke-width: 1.0;"/><polygon fill="#A80036" points="410.07,88.18,406.1561,94.2365,410.2414,100.1788,414.1553,94.1223,410.07,88.18" style="stroke: #A80036; stroke-width: 1.0;"/><!--MD5=[65622aaf8fcfd7b10df86db327daabc8]
link Order to Customer--><path d="M310.15,48 C320.6,48 331.05,48 341.5,48 " fill="none" id="Order-&gt;Customer" style="stroke: #A80036; stroke-width: 1.0;"/><polygon fill="#A80036" points="346.63,48,337.63,44,341.63,48,337.63,52,346.63,48" style="stroke: #A80036; stroke-width: 1.0;"/><text fill="#000000" font-family="sans-serif" font-size="13" lengthAdjust="spacingAndGlyphs" textLength="8" x="317.8564" y="44.709">1</text><text fill="#000000" font-family="sans-serif" font-size="13" lengthAdjust="spacingAndGlyphs" textLength="8" x="330.8982" y="44.709">1</text><!--MD5=[d5c44bc15e43e3ab3a66e044dd8fc150]
@startuml
class Order <<AggregateRoot>> {
  id : OrderId
  …
}

class LineItem <<Entity>> {
  amount : MonetaryAmount
  …
}

class Product <<AggregateRoot>> {
  id : ProductId
  …
}

class Customer <<AggregateRoot>> {
  id : CustomerId
  …
}

class Address <<ValueObject>> {
  zipCode : ZipCode
  …
}

Order "1" *- - "*" LineItem
LineItem -left-> Product
Customer *- - Address
Order "1" -right-> "1" Customer

@enduml

PlantUML version 1.2019.12(Sun Nov 03 11:24:54 CET 2019)
(APACHE source distribution)
Java Runtime: Java(TM) SE Runtime Environment
JVM: Java HotSpot(TM) 64-Bit Server VM
Java Version: 1.8.0_202-b08
Operating System: Mac OS X
Default Encoding: UTF-8
Language: de
Country: DE
--></g></svg>